<?xml version="1.0" encoding="utf-8"?>
<!-- Generator: Adobe Illustrator 27.5.0, SVG Export Plug-In . SVG Version: 6.00 Build 0)  -->
<svg version="1.1" xmlns="http://www.w3.org/2000/svg" xmlns:xlink="http://www.w3.org/1999/xlink" x="0px" y="0px"
	 viewBox="0 0 500 500" style="enable-background:new 0 0 500 500;" xml:space="preserve">
<g id="Background_Complete">
	<g>
		<rect y="382.398" style="fill:#EBEBEB;" width="500" height="0.25"/>
		<rect x="423.667" y="398.494" style="fill:#EBEBEB;" width="26.235" height="0.25"/>
		<rect x="322.527" y="395.236" style="fill:#EBEBEB;" width="34.235" height="0.25"/>
		<rect x="389.333" y="389.208" style="fill:#EBEBEB;" width="26.445" height="0.25"/>
		<rect x="67.695" y="390.888" style="fill:#EBEBEB;" width="43.193" height="0.25"/>
		<rect x="52.459" y="390.888" style="fill:#EBEBEB;" width="6.333" height="0.25"/>
		<rect x="131.471" y="395.111" style="fill:#EBEBEB;" width="56.195" height="0.25"/>
		<path style="fill:#EBEBEB;" d="M237.014,337.8H43.915c-3.147,0-5.708-2.56-5.708-5.708V60.66c0-3.147,2.561-5.708,5.708-5.708
			h193.099c3.146,0,5.707,2.561,5.707,5.708v271.432C242.721,335.239,240.16,337.8,237.014,337.8z M43.915,55.203
			c-3.01,0-5.458,2.448-5.458,5.458v271.432c0,3.01,2.448,5.458,5.458,5.458h193.099c3.009,0,5.457-2.448,5.457-5.458V60.66
			c0-3.009-2.448-5.458-5.457-5.458H43.915z"/>
		<path style="fill:#EBEBEB;" d="M453.31,337.8H260.212c-3.147,0-5.707-2.56-5.707-5.708V60.66c0-3.147,2.561-5.708,5.707-5.708
			H453.31c3.148,0,5.708,2.561,5.708,5.708v271.432C459.019,335.239,456.458,337.8,453.31,337.8z M260.212,55.203
			c-3.009,0-5.457,2.448-5.457,5.458v271.432c0,3.01,2.448,5.458,5.457,5.458H453.31c3.01,0,5.458-2.448,5.458-5.458V60.66
			c0-3.009-2.448-5.458-5.458-5.458H260.212z"/>
	</g>
	<g>
		<g>
			<g>
				<rect x="69.666" y="73.266" style="fill:#FAFAFA;" width="362.408" height="225.41"/>
				<polygon style="fill:#FFFFFF;" points="307.379,298.676 247.003,298.676 296.58,73.266 356.956,73.266 				"/>
				<polygon style="fill:#FFFFFF;" points="341.245,298.676 321.055,298.676 370.633,73.266 390.823,73.266 				"/>
				<polygon style="fill:#FFFFFF;" points="154.041,298.676 114.786,298.676 164.363,73.266 203.619,73.266 				"/>
				<path style="fill:#EBEBEB;" d="M65.288,68.053v235.836h371.165V68.053H65.288z M428.574,296.315H73.166V75.626h355.408V296.315z
					"/>
				<rect x="238.303" y="72.453" style="fill:#EBEBEB;" width="25.136" height="228.389"/>
				<rect x="69.666" y="231.744" style="fill:#EBEBEB;" width="362.408" height="8.775"/>
				<rect x="242.147" y="72.453" style="fill:#E0E0E0;" width="2.269" height="228.389"/>
				<rect x="258.645" y="72.453" style="fill:#F0F0F0;" width="0.605" height="228.389"/>
			</g>
		</g>
		<g>
			<path style="fill:#E6E6E6;" d="M59.56,71.216v291.569c0,4.537,3.826,8.215,8.546,8.215h0c16.207,0,28.449-14.693,25.522-30.634
				l-15.16-82.579c34.114-44.71,59.404-108.425,80.102-182.032C160.371,69.351,155.535,63,148.882,63H68.106
				C63.386,63,59.56,66.678,59.56,71.216z"/>
			<path style="fill:#F5F5F5;" d="M77.07,265.038H62.55c-3.988,0-7.251-3.263-7.251-7.251l0,0c0-3.988,3.263-7.251,7.251-7.251
				h14.52c3.988,0,7.251,3.263,7.251,7.251l0,0C84.321,261.775,81.058,265.038,77.07,265.038z"/>
		</g>
		<g>
			<path style="fill:#E6E6E6;" d="M440.44,71.216v291.569c0,4.537-3.826,8.215-8.546,8.215h0c-16.207,0-28.449-14.693-25.522-30.634
				l15.16-82.579c-34.114-44.71-59.404-108.425-80.102-182.032C339.629,69.351,344.465,63,351.118,63h80.776
				C436.614,63,440.44,66.678,440.44,71.216z"/>
			<path style="fill:#F5F5F5;" d="M422.93,265.038h14.52c3.988,0,7.251-3.263,7.251-7.251l0,0c0-3.988-3.263-7.251-7.251-7.251
				h-14.52c-3.988,0-7.251,3.263-7.251,7.251l0,0C415.679,261.775,418.942,265.038,422.93,265.038z"/>
		</g>
	</g>
</g>
<g id="Background_Simple" style="display:none;">
	<g style="display:inline;">
		<path style="fill:#407BFF;" d="M88.385,182.539c-8.316-25.214-7.426-53.324,5.301-75.609
			c16.204-28.373,54.486-46.648,86.054-29.253c13.812,7.61,24.87,19.374,35.98,30.638c16.763,16.996,34.346,33.404,54.286,46.452
			c18.97,12.413,41.628,16.962,62.716,24.096c17.972,6.08,35.891,13.819,50.166,26.552c33.606,29.976,37.644,90.276,18.753,127.02
			c-20.911,40.674-67.098,61.504-112.523,48.17c-21.417-6.287-40.902-19.848-54.41-37.868c-17.266-23.035-24.92-59.302-52.347-73.59
			c-17.529-9.132-33.606-12.69-49.507-25.464c-16.489-13.246-30.604-29.77-39.6-48.908C91.388,190.802,89.761,186.71,88.385,182.539
			z"/>
		<path style="opacity:0.9;fill:#FFFFFF;" d="M88.385,182.539c-8.316-25.214-7.426-53.324,5.301-75.609
			c16.204-28.373,54.486-46.648,86.054-29.253c13.812,7.61,24.87,19.374,35.98,30.638c16.763,16.996,34.346,33.404,54.286,46.452
			c18.97,12.413,41.628,16.962,62.716,24.096c17.972,6.08,35.891,13.819,50.166,26.552c33.606,29.976,37.644,90.276,18.753,127.02
			c-20.911,40.674-67.098,61.504-112.523,48.17c-21.417-6.287-40.902-19.848-54.41-37.868c-17.266-23.035-24.92-59.302-52.347-73.59
			c-17.529-9.132-33.606-12.69-49.507-25.464c-16.489-13.246-30.604-29.77-39.6-48.908C91.388,190.802,89.761,186.71,88.385,182.539
			z"/>
	</g>
</g>
<g id="Shadow_1_">
	<ellipse id="_x3C_Path_x3E__165_" style="fill:#F5F5F5;" cx="250" cy="416.238" rx="193.889" ry="11.323"/>
</g>
<g id="Teddy_bear">
	<g>
		<g>
			<path style="fill:#407BFF;" d="M343.086,355.221c0,46.17-41.676,54.121-93.086,54.121s-93.086-7.951-93.086-54.121
				S198.59,260.609,250,260.609S343.086,309.052,343.086,355.221z"/>
			<g>
				<path style="fill:#407BFF;" d="M196.736,374.879c-21.582-17.72-32.697-15.023-32.697-15.023s-9.508-27.628-32.863-24.625
					c-33.104,4.256-28.916,74.291-3.336,81.186c25.579,6.895,80.598-3.498,87.049-9.726
					C221.338,400.463,205.879,382.386,196.736,374.879z"/>
				
					<ellipse transform="matrix(0.9853 -0.171 0.171 0.9853 -63.4165 27.3401)" style="opacity:0.2;fill:#FFFFFF;" cx="127.029" cy="381.867" rx="15.475" ry="31.102"/>
			</g>
			<g>
				<path style="fill:#407BFF;" d="M303.264,374.879c21.582-17.72,32.697-15.023,32.697-15.023s9.508-27.628,32.863-24.625
					c33.104,4.256,28.916,74.291,3.336,81.186c-25.579,6.895-80.598-3.498-87.049-9.726
					C278.662,400.463,294.121,382.386,303.264,374.879z"/>
				
					<ellipse transform="matrix(0.171 -0.9853 0.9853 0.171 -67.0388 684.06)" style="opacity:0.2;fill:#FFFFFF;" cx="372.971" cy="381.867" rx="31.102" ry="15.475"/>
			</g>
			<path style="opacity:0.2;fill:#FFFFFF;" d="M310.389,353.183c0,41.522-26.141,48.673-58.387,48.673
				c-32.246,0-58.387-7.151-58.387-48.673c0-41.522,26.141-85.088,58.387-85.088C284.248,268.095,310.389,311.661,310.389,353.183z"
				/>
			<path style="opacity:0.2;" d="M250,260.61c-26.156,0-49.531,16.857-65,40.648c14.282,22.413,38.065,37.076,65,37.076
				s50.718-14.663,65-37.076C299.531,277.467,276.156,260.61,250,260.61z"/>
			<path style="opacity:0.2;" d="M334.838,331.113c-1.101,5.995-3.573,11.671-7.407,16.285
				c-20.459,24.613-47.754,33.621-77.742,33.621c-28.156,0-53.96-7.287-73.938-28.827c-5.235-5.635-8.267-13.202-9.018-21.079
				H334.838z"/>
		</g>
		<g>
			<g>
				
					<ellipse transform="matrix(0.1056 -0.9944 0.9944 0.1056 -9.1694 350.234)" style="fill:#407BFF;" cx="190.106" cy="180.214" rx="32.931" ry="38.736"/>
				<path style="fill:#407BFF;" d="M193.582,147.467c-11.805-1.578-35.36-3.245-42.693,4.978c-5.325,5.971,2.111,9.111,2.111,9.111
					s-11,11.778,2.556,15.333C169.111,180.444,193.582,147.467,193.582,147.467z"/>
				
					<ellipse transform="matrix(0.1056 -0.9944 0.9944 0.1056 -17.5072 362.6558)" style="opacity:0.3;fill:#FFFFFF;" cx="192.841" cy="191.06" rx="21.711" ry="25.537"/>
			</g>
			<g>
				
					<ellipse transform="matrix(0.1055 -0.9944 0.9944 0.1055 94.7991 493.8008)" style="fill:#407BFF;" cx="321.894" cy="194.203" rx="32.931" ry="38.736"/>
				<path style="fill:#407BFF;" d="M362.5,184.167c0,0,3.075-2.56,1.617-6.808c-3.284-9.572-23.422-15.102-39.553-15.979
					l35.169,35.038C370.466,195.25,362.5,184.167,362.5,184.167z"/>
				
					<ellipse transform="matrix(0.1056 -0.9944 0.9944 0.1056 80.3949 497.8471)" style="opacity:0.3;fill:#FFFFFF;" cx="316.943" cy="204.233" rx="21.71" ry="25.537"/>
			</g>
			<path style="fill:#407BFF;" d="M155.674,237.366l-0.994-0.105c0.625-5.894,2-11.706,4.084-17.275l0.938,0.35
				C157.645,225.826,156.291,231.556,155.674,237.366z"/>
			<path style="fill:#407BFF;" d="M154.443,249.627c-0.165-2.43-0.205-4.893-0.12-7.32l1,0.035
				c-0.085,2.393-0.045,4.821,0.118,7.217L154.443,249.627z"/>
			
				<ellipse transform="matrix(0.1056 -0.9944 0.9944 0.1056 -22.6883 469.4521)" style="fill:#407BFF;" cx="249.617" cy="247.338" rx="78.189" ry="91.971"/>
			
				<ellipse transform="matrix(0.1056 -0.9944 0.9944 0.1056 -39.008 481.2711)" style="opacity:0.1;fill:#FFFFFF;" cx="248.027" cy="262.319" rx="58.967" ry="69.704"/>
			<path style="opacity:0.1;fill:#FFFFFF;" d="M191.257,191.868c1.498,1.562,0.428,5.018-2.389,7.72
				c-2.817,2.702-6.315,3.626-7.813,2.064c-1.498-1.562-0.428-5.018,2.389-7.72C186.261,191.23,189.759,190.306,191.257,191.868z"/>
			<path style="opacity:0.1;fill:#FFFFFF;" d="M329.734,165.398c-0.069,1.08-3.283,1.754-7.178,1.505
				c-3.895-0.248-6.997-1.325-6.929-2.405c0.069-1.08,3.283-1.754,7.178-1.505C326.701,163.242,329.803,164.318,329.734,165.398z"/>
			<path style="opacity:0.1;fill:#FFFFFF;" d="M201.302,193.553c0.961,1.002,0.577,2.93-0.857,4.306
				c-1.435,1.376-3.377,1.679-4.339,0.676c-0.961-1.002-0.577-2.931,0.857-4.307C198.398,192.853,200.34,192.55,201.302,193.553z"/>
			<path style="fill:#407BFF;" d="M269.73,162.822c0,0,2.603-9.458-12.419-8.428c-15.247,1.045-25.421,11.246-34.52,20.587
				c0,0,28.367,13.832,59.449,0.425C284.769,159.478,269.73,162.822,269.73,162.822z"/>
			<path style="opacity:0.2;fill:#263238;" d="M248.773,256.262c-0.034,0-0.068-0.002-0.104-0.005
				c-0.531-0.057-0.917-0.533-0.86-1.065l8.273-77.936c0.056-0.532,0.526-0.912,1.065-0.861c0.531,0.057,0.917,0.533,0.86,1.065
				l-8.273,77.936C249.682,255.893,249.263,256.262,248.773,256.262z"/>
			<path style="opacity:0.3;fill:#FFFFFF;" d="M234.113,244.184c-0.5,4.713-8.75,7.7-18.426,6.673
				c-9.676-1.027-17.115-5.68-16.614-10.393c0.5-4.713,8.75-7.701,18.426-6.673C227.175,234.818,234.613,239.471,234.113,244.184z"
				/>
			<path style="opacity:0.3;fill:#FFFFFF;" d="M265.438,247.509c-0.5,4.713,6.938,9.366,16.614,10.393
				c9.676,1.027,17.926-1.961,18.426-6.674c0.5-4.713-6.938-9.366-16.614-10.393C274.188,239.809,265.938,242.796,265.438,247.509z"
				/>
			<path style="fill:#263238;" d="M231.219,236.019c-0.417,3.929-3.94,6.775-7.868,6.358c-3.929-0.417-6.775-3.94-6.358-7.868
				c0.417-3.929,3.94-6.775,7.868-6.358C228.789,228.567,231.635,232.09,231.219,236.019z"/>
			<path style="fill:#263238;" d="M283.691,241.26c-0.417,3.929-3.94,6.775-7.868,6.358c-3.929-0.417-6.775-3.94-6.358-7.868
				c0.417-3.929,3.94-6.775,7.868-6.358C281.261,233.809,284.108,237.332,283.691,241.26z"/>
			
				<ellipse transform="matrix(0.1056 -0.9944 0.9944 0.1056 -53.4577 491.734)" style="fill:#FFFFFF;" cx="246.619" cy="275.583" rx="38.485" ry="49.374"/>
			<path style="fill:#263238;" d="M271.762,260.855c-0.668,6.298-11.65,10.295-24.527,8.928
				c-12.878-1.367-22.775-7.58-22.107-13.878c0.669-6.298,8.074-11.208,24.527-8.928
				C266.109,249.256,272.431,254.557,271.762,260.855z"/>
			<path style="fill:#263238;" d="M250.455,288.139c-1.675,0-3.395-0.091-5.14-0.276c-8.689-0.922-16.288-4.007-20.33-8.251
				c-0.635-0.667-0.609-1.723,0.058-2.358c0.667-0.635,1.723-0.61,2.358,0.058c3.46,3.634,10.46,6.406,18.266,7.235
				c7.806,0.828,15.233-0.411,19.379-3.238c0.762-0.519,1.8-0.322,2.317,0.439c0.52,0.761,0.323,1.799-0.438,2.317
				C263.056,286.702,257.118,288.139,250.455,288.139z"/>
			<path style="fill:#263238;" d="M245.493,287.875c-0.059,0-0.118-0.003-0.178-0.009c-0.916-0.097-1.58-0.919-1.482-1.835
				l2.671-25.157c0.098-0.915,0.925-1.579,1.834-1.482c0.916,0.097,1.58,0.919,1.482,1.835l-2.671,25.157
				C247.059,287.239,246.335,287.875,245.493,287.875z"/>
		</g>
		<g>
			<path style="fill:#407BFF;" d="M294.588,302.332l0.001,0c-14.315-10.157-31.853-4.668-44.98,5.929
				c-15.652-6.298-36.034-6.122-46.754,7.772c-6.299,8.164-8.975,18.36-7.535,28.709c1.45,10.42,7.113,19.971,15.536,26.206
				l32.955,24.389c5.339,3.952,11.898,5.587,18.467,4.606c6.571-0.982,12.364-4.462,16.316-9.801l24.389-32.954
				c6.234-8.423,8.858-19.213,7.201-29.602C308.536,317.268,302.998,308.299,294.588,302.332z"/>
			<path style="opacity:0.5;" d="M294.588,302.332l0.001,0c-14.315-10.157-31.853-4.668-44.98,5.929
				c-15.652-6.298-36.034-6.122-46.754,7.772c-6.299,8.164-8.975,18.36-7.535,28.709c1.45,10.42,7.113,19.971,15.536,26.206
				l32.955,24.389c5.339,3.952,11.898,5.587,18.467,4.606c6.571-0.982,12.364-4.462,16.316-9.801l24.389-32.954
				c6.234-8.423,8.858-19.213,7.201-29.602C308.536,317.268,302.998,308.299,294.588,302.332z"/>
		</g>
		<path style="fill:#407BFF;" d="M290.548,324.915c0.208-3.629,6.004-5.618,10.891-4.791c0,0,0,0,0,0
			c12.03-8.511,17.733-21.353,19.327-25.481c0.288-0.745,1.136-1.079,1.868-0.76c30.185,13.163,8.055,57.585-14.452,60.582
			c-8.048,1.072-17.275-16.013-11.721-26.511C296.461,327.955,290.339,328.544,290.548,324.915z"/>
		<path style="opacity:0.2;fill:#407BFF;" d="M231.189,338.644c-6.316,10.608-17.359,15.682-24.665,11.332
			c-7.306-4.35-8.109-16.476-1.792-27.085c6.316-10.608,17.359-15.682,24.665-11.332
			C236.702,315.91,237.505,328.036,231.189,338.644z"/>
		<path style="opacity:0.2;fill:#407BFF;" d="M264.563,304.112c5.057-2.196,10.284-1.379,11.675,1.824
			c1.391,3.203-1.582,7.58-6.639,9.775c-5.057,2.196-10.284,1.379-11.675-1.824C256.534,310.684,259.506,306.307,264.563,304.112z"
			/>
		<path style="fill:#407BFF;" d="M209.186,325.179c-0.208-3.629-6.004-5.618-10.891-4.791c0,0,0,0,0,0
			c-12.005-8.494-17.45-21.481-18.969-25.699c-0.275-0.764-1.137-1.117-1.881-0.792c-30.148,13.188-8.392,57.836,14.106,60.832
			c8.048,1.072,17.275-16.013,11.721-26.511C203.273,328.219,209.395,328.808,209.186,325.179z"/>
	</g>
</g>
<g id="Hearts">
	<g>
		<g>
			<g>
				<path style="fill:#407BFF;" d="M238.25,109.455L238.25,109.455c-6.17-1.164-12.253,2.065-14.938,7.471
					c-6.029,0.291-11.425,4.569-12.835,10.687c-0.828,3.595-0.175,7.309,1.839,10.458c2.028,3.171,5.296,5.429,8.965,6.198
					l14.356,3.005c2.326,0.487,4.702,0.039,6.691-1.262c1.989-1.301,3.353-3.298,3.839-5.623l3.005-14.355
					c0.768-3.669,0.009-7.569-2.081-10.698C245.015,112.226,241.875,110.138,238.25,109.455z"/>
				<path style="opacity:0.4;fill:#FFFFFF;" d="M238.25,109.455L238.25,109.455c-6.17-1.164-12.253,2.065-14.938,7.471
					c-6.029,0.291-11.425,4.569-12.835,10.687c-0.828,3.595-0.175,7.309,1.839,10.458c2.028,3.171,5.296,5.429,8.965,6.198
					l14.356,3.005c2.326,0.487,4.702,0.039,6.691-1.262c1.989-1.301,3.353-3.298,3.839-5.623l3.005-14.355
					c0.768-3.669,0.009-7.569-2.081-10.698C245.015,112.226,241.875,110.138,238.25,109.455z"/>
			</g>
			<g>
				<path style="fill:#407BFF;" d="M280.49,88.711L280.49,88.711c-1.663-3.742-5.651-5.81-9.546-5.246
					c-2.391-3.127-6.687-4.437-10.492-2.925c-2.236,0.888-3.987,2.616-4.93,4.864c-0.95,2.263-0.95,4.854-0.002,7.108l3.71,8.817
					c0.601,1.429,1.722,2.538,3.157,3.123c1.435,0.585,3.012,0.576,4.441-0.024l8.817-3.709c2.254-0.948,4.065-2.801,4.969-5.083
					C281.511,93.369,281.467,90.91,280.49,88.711z"/>
				<path style="opacity:0.6;fill:#FFFFFF;" d="M280.49,88.711L280.49,88.711c-1.663-3.742-5.651-5.81-9.546-5.246
					c-2.391-3.127-6.687-4.437-10.492-2.925c-2.236,0.888-3.987,2.616-4.93,4.864c-0.95,2.263-0.95,4.854-0.002,7.108l3.71,8.817
					c0.601,1.429,1.722,2.538,3.157,3.123c1.435,0.585,3.012,0.576,4.441-0.024l8.817-3.709c2.254-0.948,4.065-2.801,4.969-5.083
					C281.511,93.369,281.467,90.91,280.49,88.711z"/>
			</g>
			<g>
				<path style="fill:#407BFF;" d="M241.622,53.943L241.622,53.943c-2.802-1.716-6.378-1.268-8.696,0.877
					c-3.003-0.978-6.438,0.111-8.265,2.841c-1.074,1.604-1.444,3.543-1.045,5.458c0.402,1.928,1.581,3.64,3.233,4.699l6.464,4.139
					c1.047,0.671,2.293,0.893,3.508,0.627c1.215-0.266,2.253-0.99,2.924-2.037l4.139-6.464c1.058-1.652,1.412-3.701,0.971-5.62
					C244.416,56.556,243.268,54.951,241.622,53.943z"/>
				<path style="opacity:0.8;fill:#FFFFFF;" d="M241.622,53.943L241.622,53.943c-2.802-1.716-6.378-1.268-8.696,0.877
					c-3.003-0.978-6.438,0.111-8.265,2.841c-1.074,1.604-1.444,3.543-1.045,5.458c0.402,1.928,1.581,3.64,3.233,4.699l6.464,4.139
					c1.047,0.671,2.293,0.893,3.508,0.627c1.215-0.266,2.253-0.99,2.924-2.037l4.139-6.464c1.058-1.652,1.412-3.701,0.971-5.62
					C244.416,56.556,243.268,54.951,241.622,53.943z"/>
			</g>
		</g>
		<g>
			<g>
				<path style="fill:#407BFF;" d="M362.555,282.714L362.555,282.714c-1.596-1.07-3.697-0.894-5.103,0.304
					c-1.731-0.644-3.765-0.09-4.898,1.462c-0.666,0.912-0.929,2.036-0.741,3.164c0.189,1.136,0.836,2.165,1.776,2.823l3.678,2.574
					c0.596,0.417,1.318,0.577,2.035,0.45c0.716-0.126,1.34-0.524,1.757-1.12l2.574-3.678c0.658-0.94,0.914-2.129,0.702-3.261
					C364.125,284.309,363.492,283.343,362.555,282.714z"/>
				<path style="opacity:0.6;fill:#FFFFFF;" d="M362.555,282.714L362.555,282.714c-1.596-1.07-3.697-0.894-5.103,0.304
					c-1.731-0.644-3.765-0.09-4.898,1.462c-0.666,0.912-0.929,2.036-0.741,3.164c0.189,1.136,0.836,2.165,1.776,2.823l3.678,2.574
					c0.596,0.417,1.318,0.577,2.035,0.45c0.716-0.126,1.34-0.524,1.757-1.12l2.574-3.678c0.658-0.94,0.914-2.129,0.702-3.261
					C364.125,284.309,363.492,283.343,362.555,282.714z"/>
			</g>
			<g>
				<path style="fill:#407BFF;" d="M375.713,262.623L375.713,262.623c-0.528-1.111-1.74-1.701-2.905-1.502
					c-0.741-0.92-2.041-1.281-3.171-0.798c-0.664,0.284-1.177,0.815-1.443,1.497c-0.268,0.687-0.248,1.464,0.053,2.133l1.181,2.618
					c0.191,0.424,0.536,0.748,0.971,0.913c0.435,0.165,0.908,0.15,1.333-0.041l2.618-1.18c0.669-0.302,1.199-0.872,1.453-1.563
					C376.055,264.013,376.023,263.276,375.713,262.623z"/>
				<path style="opacity:0.5;fill:#FFFFFF;" d="M375.713,262.623L375.713,262.623c-0.528-1.111-1.74-1.701-2.905-1.502
					c-0.741-0.92-2.041-1.281-3.171-0.798c-0.664,0.284-1.177,0.815-1.443,1.497c-0.268,0.687-0.248,1.464,0.053,2.133l1.181,2.618
					c0.191,0.424,0.536,0.748,0.971,0.913c0.435,0.165,0.908,0.15,1.333-0.041l2.618-1.18c0.669-0.302,1.199-0.872,1.453-1.563
					C376.055,264.013,376.023,263.276,375.713,262.623z"/>
			</g>
			<g>
				<path style="fill:#407BFF;" d="M363.532,242.658L363.532,242.658c-0.534-0.395-1.262-0.368-1.767,0.023
					c-0.587-0.25-1.299-0.092-1.715,0.426c-0.245,0.304-0.354,0.688-0.307,1.081c0.047,0.395,0.254,0.761,0.568,1.003l1.229,0.948
					c0.199,0.154,0.446,0.22,0.695,0.188c0.249-0.032,0.471-0.16,0.625-0.359l0.948-1.229c0.242-0.314,0.35-0.72,0.295-1.115
					C364.049,243.234,363.846,242.891,363.532,242.658z"/>
				<path style="opacity:0.8;fill:#FFFFFF;" d="M363.532,242.658L363.532,242.658c-0.534-0.395-1.262-0.368-1.767,0.023
					c-0.587-0.25-1.299-0.092-1.715,0.426c-0.245,0.304-0.354,0.688-0.307,1.081c0.047,0.395,0.254,0.761,0.568,1.003l1.229,0.948
					c0.199,0.154,0.446,0.22,0.695,0.188c0.249-0.032,0.471-0.16,0.625-0.359l0.948-1.229c0.242-0.314,0.35-0.72,0.295-1.115
					C364.049,243.234,363.846,242.891,363.532,242.658z"/>
			</g>
		</g>
		<g>
			<g>
				<path style="fill:#407BFF;" d="M126.53,257.249L126.53,257.249c-1.639-1.004-3.73-0.742-5.086,0.513
					c-1.756-0.572-3.766,0.065-4.834,1.662c-0.628,0.938-0.845,2.072-0.611,3.192c0.235,1.128,0.925,2.129,1.891,2.748l3.78,2.421
					c0.612,0.392,1.341,0.522,2.051,0.367c0.71-0.156,1.318-0.579,1.71-1.191l2.421-3.78c0.619-0.966,0.826-2.164,0.568-3.287
					C128.164,258.777,127.493,257.838,126.53,257.249z"/>
				<path style="opacity:0.8;fill:#FFFFFF;" d="M126.53,257.249L126.53,257.249c-1.639-1.004-3.73-0.742-5.086,0.513
					c-1.756-0.572-3.766,0.065-4.834,1.662c-0.628,0.938-0.845,2.072-0.611,3.192c0.235,1.128,0.925,2.129,1.891,2.748l3.78,2.421
					c0.612,0.392,1.341,0.522,2.051,0.367c0.71-0.156,1.318-0.579,1.71-1.191l2.421-3.78c0.619-0.966,0.826-2.164,0.568-3.287
					C128.164,258.777,127.493,257.838,126.53,257.249z"/>
			</g>
			<g>
				<path style="fill:#407BFF;" d="M144.515,284.264L144.515,284.264c-0.588-0.947-1.74-1.355-2.769-1.058
					c-0.761-0.754-1.968-0.947-2.937-0.397c-0.57,0.323-0.977,0.854-1.148,1.495c-0.171,0.646-0.075,1.344,0.264,1.916l1.329,2.238
					c0.215,0.363,0.559,0.62,0.967,0.724c0.409,0.104,0.833,0.043,1.196-0.172l2.238-1.328c0.572-0.34,0.991-0.906,1.15-1.555
					C144.964,285.482,144.861,284.82,144.515,284.264z"/>
				<path style="opacity:0.5;fill:#FFFFFF;" d="M144.515,284.264L144.515,284.264c-0.588-0.947-1.74-1.355-2.769-1.058
					c-0.761-0.754-1.968-0.947-2.937-0.397c-0.57,0.323-0.977,0.854-1.148,1.495c-0.171,0.646-0.075,1.344,0.264,1.916l1.329,2.238
					c0.215,0.363,0.559,0.62,0.967,0.724c0.409,0.104,0.833,0.043,1.196-0.172l2.238-1.328c0.572-0.34,0.991-0.906,1.15-1.555
					C144.964,285.482,144.861,284.82,144.515,284.264z"/>
			</g>
		</g>
	</g>
</g>
</svg>
